<mxfile host="app.diagrams.net" agent="Mozilla/5.0 (Windows NT 10.0; Win64; x64; rv:135.0) Gecko/20100101 Firefox/135.0" version="26.0.16">
  <diagram name="Page-1" id="NfdfBlgT7xRS604f-HNm">
    <mxGraphModel dx="1434" dy="782" grid="1" gridSize="10" guides="1" tooltips="1" connect="1" arrows="1" fold="1" page="1" pageScale="1" pageWidth="850" pageHeight="1100" math="0" shadow="0">
      <root>
        <mxCell id="0" />
        <mxCell id="1" parent="0" />
        <mxCell id="rpOfuUOqTEvzoVaStofT-46" value="" style="rounded=0;whiteSpace=wrap;html=1;" vertex="1" parent="1">
          <mxGeometry y="130" width="1000" height="660" as="geometry" />
        </mxCell>
        <mxCell id="rpOfuUOqTEvzoVaStofT-2" value="Peer Lifecycle" style="swimlane;whiteSpace=wrap;html=1;fillColor=#BF6663;strokeColor=#b85450;labelBackgroundColor=none;swimlaneFillColor=default;fontColor=#FFFFFF;" vertex="1" parent="1">
          <mxGeometry x="120" y="280" width="560" height="200" as="geometry" />
        </mxCell>
        <mxCell id="rpOfuUOqTEvzoVaStofT-28" value="" style="html=1;shadow=0;dashed=0;align=center;verticalAlign=middle;shape=mxgraph.arrows2.arrow;dy=0;dx=0;notch=0;rotation=-180;" vertex="1" parent="rpOfuUOqTEvzoVaStofT-2">
          <mxGeometry x="20" y="100" width="180" height="30" as="geometry" />
        </mxCell>
        <mxCell id="rpOfuUOqTEvzoVaStofT-25" value="" style="html=1;shadow=0;dashed=0;align=center;verticalAlign=middle;shape=mxgraph.arrows2.arrow;dy=0;dx=10;notch=0;rotation=-180;" vertex="1" parent="rpOfuUOqTEvzoVaStofT-2">
          <mxGeometry x="160" y="100" width="200" height="30" as="geometry" />
        </mxCell>
        <mxCell id="rpOfuUOqTEvzoVaStofT-19" value="" style="shape=corner;whiteSpace=wrap;html=1;rotation=90;dx=30;dy=30;" vertex="1" parent="rpOfuUOqTEvzoVaStofT-2">
          <mxGeometry x="425" y="45" width="70" height="80" as="geometry" />
        </mxCell>
        <mxCell id="rpOfuUOqTEvzoVaStofT-4" value="&lt;div&gt;Connection is wrapped as&lt;/div&gt;&lt;div&gt;GenericPeer&lt;/div&gt;" style="html=1;shadow=0;dashed=0;align=center;verticalAlign=middle;shape=mxgraph.arrows2.arrow;dy=0;dx=10;notch=0;" vertex="1" parent="rpOfuUOqTEvzoVaStofT-2">
          <mxGeometry x="280" y="50" width="160" height="30" as="geometry" />
        </mxCell>
        <mxCell id="rpOfuUOqTEvzoVaStofT-18" value="&lt;div&gt;Ensure connection is&lt;/div&gt;&lt;div&gt;not blocked or flagged&lt;/div&gt;" style="html=1;shadow=0;dashed=0;align=center;verticalAlign=middle;shape=mxgraph.arrows2.arrow;dy=0;dx=10;notch=0;" vertex="1" parent="rpOfuUOqTEvzoVaStofT-2">
          <mxGeometry x="150" y="50" width="140" height="30" as="geometry" />
        </mxCell>
        <mxCell id="rpOfuUOqTEvzoVaStofT-20" value="" style="html=1;shadow=0;dashed=0;align=center;verticalAlign=middle;shape=mxgraph.arrows2.arrow;dy=0;dx=10;notch=0;rotation=-180;strokeColor=default;" vertex="1" parent="rpOfuUOqTEvzoVaStofT-2">
          <mxGeometry x="330" y="100" width="170" height="30" as="geometry" />
        </mxCell>
        <mxCell id="rpOfuUOqTEvzoVaStofT-22" value="" style="rounded=0;whiteSpace=wrap;html=1;strokeColor=#FFFFFF;" vertex="1" parent="rpOfuUOqTEvzoVaStofT-2">
          <mxGeometry x="471" y="90" width="28" height="20" as="geometry" />
        </mxCell>
        <mxCell id="rpOfuUOqTEvzoVaStofT-23" value="GenericPeer is added to KnownPeers" style="text;html=1;align=center;verticalAlign=middle;whiteSpace=wrap;rounded=0;" vertex="1" parent="rpOfuUOqTEvzoVaStofT-2">
          <mxGeometry x="341" y="100" width="130" height="30" as="geometry" />
        </mxCell>
        <mxCell id="rpOfuUOqTEvzoVaStofT-26" value="&lt;div&gt;PeerChannel added to&lt;/div&gt;&lt;div&gt;ActivePeerChannels&lt;/div&gt;" style="text;html=1;align=center;verticalAlign=middle;whiteSpace=wrap;rounded=0;" vertex="1" parent="rpOfuUOqTEvzoVaStofT-2">
          <mxGeometry x="20" y="100" width="130" height="30" as="geometry" />
        </mxCell>
        <mxCell id="rpOfuUOqTEvzoVaStofT-29" value="&lt;div&gt;IPeer of connection is&lt;/div&gt;&lt;div&gt;wrapped as PeerChannel&lt;/div&gt;" style="text;html=1;align=center;verticalAlign=middle;whiteSpace=wrap;rounded=0;" vertex="1" parent="rpOfuUOqTEvzoVaStofT-2">
          <mxGeometry x="170" y="100" width="155" height="30" as="geometry" />
        </mxCell>
        <mxCell id="rpOfuUOqTEvzoVaStofT-5" value="&lt;div&gt;Ensure no duplicates&lt;/div&gt;&lt;div&gt;connections exist&lt;/div&gt;" style="html=1;shadow=0;dashed=0;align=center;verticalAlign=middle;shape=mxgraph.arrows2.arrow;dy=0;dx=10;notch=0;" vertex="1" parent="1">
          <mxGeometry x="140" y="330" width="140" height="30" as="geometry" />
        </mxCell>
        <mxCell id="rpOfuUOqTEvzoVaStofT-6" value="Inbound TCP channel for incoming peer connections" style="shape=cube;whiteSpace=wrap;html=1;boundedLbl=1;backgroundOutline=1;darkOpacity=0.05;darkOpacity2=0.1;size=10;" vertex="1" parent="1">
          <mxGeometry x="110" y="150" width="180" height="80" as="geometry" />
        </mxCell>
        <mxCell id="rpOfuUOqTEvzoVaStofT-7" style="edgeStyle=orthogonalEdgeStyle;rounded=0;orthogonalLoop=1;jettySize=auto;html=1;entryX=0;entryY=0.5;entryDx=0;entryDy=0;entryPerimeter=0;exitX=-0.006;exitY=0.463;exitDx=0;exitDy=0;exitPerimeter=0;" edge="1" parent="1" source="rpOfuUOqTEvzoVaStofT-6" target="rpOfuUOqTEvzoVaStofT-5">
          <mxGeometry relative="1" as="geometry">
            <Array as="points">
              <mxPoint x="70" y="187" />
              <mxPoint x="70" y="345" />
            </Array>
          </mxGeometry>
        </mxCell>
        <mxCell id="rpOfuUOqTEvzoVaStofT-9" value="&lt;div&gt;New inbound&lt;/div&gt;&lt;div&gt;peer connection&lt;/div&gt;" style="edgeLabel;html=1;align=center;verticalAlign=middle;resizable=0;points=[];" vertex="1" connectable="0" parent="rpOfuUOqTEvzoVaStofT-7">
          <mxGeometry x="-0.034" y="1" relative="1" as="geometry">
            <mxPoint as="offset" />
          </mxGeometry>
        </mxCell>
        <mxCell id="rpOfuUOqTEvzoVaStofT-11" value="" style="sketch=0;pointerEvents=1;shadow=0;dashed=0;html=1;strokeColor=none;fillColor=#505050;labelPosition=center;verticalLabelPosition=bottom;verticalAlign=top;outlineConnect=0;align=center;shape=mxgraph.office.users.user;" vertex="1" parent="1">
          <mxGeometry x="6" y="263" width="22" height="24.06" as="geometry" />
        </mxCell>
        <mxCell id="rpOfuUOqTEvzoVaStofT-12" value="KnownPeers" style="swimlane;whiteSpace=wrap;html=1;fillColor=#f0a30a;strokeColor=#BD7000;labelBackgroundColor=none;swimlaneFillColor=default;fontColor=#FFFFFF;" vertex="1" parent="1">
          <mxGeometry x="425" y="500" width="560" height="130" as="geometry" />
        </mxCell>
        <mxCell id="rpOfuUOqTEvzoVaStofT-34" value="" style="sketch=0;pointerEvents=1;shadow=0;dashed=0;html=1;strokeColor=none;fillColor=#505050;labelPosition=center;verticalLabelPosition=bottom;verticalAlign=top;outlineConnect=0;align=center;shape=mxgraph.office.users.user;" vertex="1" parent="rpOfuUOqTEvzoVaStofT-12">
          <mxGeometry x="18.619999999999997" y="47.5" width="30" height="35" as="geometry" />
        </mxCell>
        <mxCell id="rpOfuUOqTEvzoVaStofT-36" value="" style="sketch=0;pointerEvents=1;shadow=0;dashed=0;html=1;strokeColor=none;fillColor=#505050;labelPosition=center;verticalLabelPosition=bottom;verticalAlign=top;outlineConnect=0;align=center;shape=mxgraph.office.users.user;" vertex="1" parent="rpOfuUOqTEvzoVaStofT-12">
          <mxGeometry x="75" y="47.5" width="30" height="35" as="geometry" />
        </mxCell>
        <mxCell id="rpOfuUOqTEvzoVaStofT-37" value="" style="sketch=0;pointerEvents=1;shadow=0;dashed=0;html=1;strokeColor=none;fillColor=#505050;labelPosition=center;verticalLabelPosition=bottom;verticalAlign=top;outlineConnect=0;align=center;shape=mxgraph.office.users.user;" vertex="1" parent="rpOfuUOqTEvzoVaStofT-12">
          <mxGeometry x="135" y="47.5" width="30" height="35" as="geometry" />
        </mxCell>
        <mxCell id="rpOfuUOqTEvzoVaStofT-42" value="" style="sketch=0;pointerEvents=1;shadow=1;dashed=0;html=1;strokeColor=none;fillColor=#FFFFFF;labelPosition=center;verticalLabelPosition=bottom;verticalAlign=top;outlineConnect=0;align=center;shape=mxgraph.office.concepts.address_book;" vertex="1" parent="rpOfuUOqTEvzoVaStofT-12">
          <mxGeometry x="324" y="1" width="29" height="19" as="geometry" />
        </mxCell>
        <mxCell id="rpOfuUOqTEvzoVaStofT-14" value="ActivePeerChannels" style="swimlane;whiteSpace=wrap;html=1;fillColor=#6d8764;strokeColor=#3A5431;labelBackgroundColor=none;swimlaneFillColor=default;fontColor=#ffffff;" vertex="1" parent="1">
          <mxGeometry x="425" y="650" width="560" height="130" as="geometry" />
        </mxCell>
        <mxCell id="rpOfuUOqTEvzoVaStofT-15" value="" style="sketch=0;pointerEvents=1;shadow=0;dashed=0;html=1;strokeColor=none;fillColor=#505050;labelPosition=center;verticalLabelPosition=bottom;verticalAlign=top;outlineConnect=0;align=center;shape=mxgraph.office.users.communications;" vertex="1" parent="rpOfuUOqTEvzoVaStofT-14">
          <mxGeometry x="15" y="45" width="37.24" height="40" as="geometry" />
        </mxCell>
        <mxCell id="rpOfuUOqTEvzoVaStofT-16" value="" style="sketch=0;pointerEvents=1;shadow=0;dashed=0;html=1;strokeColor=none;fillColor=#505050;labelPosition=center;verticalLabelPosition=bottom;verticalAlign=top;outlineConnect=0;align=center;shape=mxgraph.office.users.communications;" vertex="1" parent="rpOfuUOqTEvzoVaStofT-14">
          <mxGeometry x="75" y="45" width="37.24" height="40" as="geometry" />
        </mxCell>
        <mxCell id="rpOfuUOqTEvzoVaStofT-38" value="" style="sketch=0;pointerEvents=1;shadow=0;dashed=0;html=1;strokeColor=none;fillColor=#505050;labelPosition=center;verticalLabelPosition=bottom;verticalAlign=top;outlineConnect=0;align=center;shape=mxgraph.office.users.communications;" vertex="1" parent="rpOfuUOqTEvzoVaStofT-14">
          <mxGeometry x="135" y="45" width="37.24" height="40" as="geometry" />
        </mxCell>
        <mxCell id="rpOfuUOqTEvzoVaStofT-43" value="" style="sketch=0;pointerEvents=1;shadow=1;dashed=0;html=1;strokeColor=none;fillColor=#FFFFFF;labelPosition=center;verticalLabelPosition=bottom;verticalAlign=top;outlineConnect=0;align=center;shape=mxgraph.office.communications.chat_room;" vertex="1" parent="rpOfuUOqTEvzoVaStofT-14">
          <mxGeometry x="344" y="2" width="20" height="20" as="geometry" />
        </mxCell>
        <mxCell id="rpOfuUOqTEvzoVaStofT-30" style="edgeStyle=orthogonalEdgeStyle;rounded=0;orthogonalLoop=1;jettySize=auto;html=1;entryX=0;entryY=0.5;entryDx=0;entryDy=0;" edge="1" parent="1" source="rpOfuUOqTEvzoVaStofT-23" target="rpOfuUOqTEvzoVaStofT-12">
          <mxGeometry relative="1" as="geometry" />
        </mxCell>
        <mxCell id="rpOfuUOqTEvzoVaStofT-40" value="&lt;div&gt;OnIncomingPeerConnectionAttempt&lt;/div&gt;&lt;div&gt;event raised and/or peer enqueued&lt;/div&gt;&lt;div&gt;(see IncomingPeerPlacement) &lt;br&gt;&lt;/div&gt;" style="edgeLabel;html=1;align=center;verticalAlign=middle;resizable=0;points=[];" vertex="1" connectable="0" parent="rpOfuUOqTEvzoVaStofT-30">
          <mxGeometry x="-0.3176" y="-1" relative="1" as="geometry">
            <mxPoint x="-150" y="72" as="offset" />
          </mxGeometry>
        </mxCell>
        <mxCell id="rpOfuUOqTEvzoVaStofT-31" style="edgeStyle=orthogonalEdgeStyle;rounded=0;orthogonalLoop=1;jettySize=auto;html=1;entryX=0;entryY=0.5;entryDx=0;entryDy=0;exitX=0.5;exitY=1;exitDx=0;exitDy=0;" edge="1" parent="1" source="rpOfuUOqTEvzoVaStofT-26" target="rpOfuUOqTEvzoVaStofT-14">
          <mxGeometry relative="1" as="geometry" />
        </mxCell>
        <mxCell id="rpOfuUOqTEvzoVaStofT-39" value="OnPeerAdded event raised" style="edgeLabel;html=1;align=center;verticalAlign=middle;resizable=0;points=[];" vertex="1" connectable="0" parent="rpOfuUOqTEvzoVaStofT-31">
          <mxGeometry x="0.4095" y="-2" relative="1" as="geometry">
            <mxPoint x="-65" y="-110" as="offset" />
          </mxGeometry>
        </mxCell>
        <mxCell id="rpOfuUOqTEvzoVaStofT-44" value="" style="sketch=0;pointerEvents=1;shadow=0;dashed=0;html=1;strokeColor=none;fillColor=#505050;labelPosition=center;verticalLabelPosition=bottom;verticalAlign=top;outlineConnect=0;align=center;shape=mxgraph.office.concepts.globe_internet;" vertex="1" parent="1">
          <mxGeometry x="330" y="150" width="50" height="49" as="geometry" />
        </mxCell>
        <mxCell id="rpOfuUOqTEvzoVaStofT-45" style="edgeStyle=orthogonalEdgeStyle;rounded=0;orthogonalLoop=1;jettySize=auto;html=1;entryX=1;entryY=0.485;entryDx=0;entryDy=0;entryPerimeter=0;endArrow=none;startFill=0;" edge="1" parent="1" source="rpOfuUOqTEvzoVaStofT-44" target="rpOfuUOqTEvzoVaStofT-6">
          <mxGeometry relative="1" as="geometry" />
        </mxCell>
      </root>
    </mxGraphModel>
  </diagram>
</mxfile>
